<svg height="18" viewBox="0 0 77 18" width="77" xmlns="http://www.w3.org/2000/svg"><g fill="#37adff" fill-rule="evenodd" transform="translate(-817 -43)"><path d="m826.397461 60h-8.849121v-15.2680664h2.030273v13.4633789h6.818848zm3.319096 0h-1.927734v-11.4536133h1.927734zm.133301-13.3710938h-2.194336v-1.9995117h2.194336zm5.698002 13.6479493c-.765628 0-1.481686-.1025381-2.148193-.3076172-.666507-.2050792-1.218504-.423827-1.656006-.65625v-2.1635742h.102539c.164064.1298834.357177.2734367.579346.430664.222169.1572274.51782.3212882.886963.4921875.328127.1503914.688719.2836909 1.081787.3999024s.801512.1743164 1.225342.1743164c.307619 0 .63574-.0358883.984375-.107666.348634-.0717777.608397-.162353.779297-.2717286.239259-.1572273.411864-.3247061.517822-.5024414.105958-.1777352.158935-.4443341.158935-.7998046 0-.4580102-.124754-.8032215-.374267-1.0356446-.249513-.232423-.692136-.4272453-1.327881-.5844726-.246095-.0615238-.567381-.1333004-.963867-.2153321-.396486-.0820316-.762205-.1708979-1.097168-.2666015-.875004-.252931-1.51074-.6442845-1.907227-1.1740723-.396486-.5297878-.594726-1.1706505-.594726-1.9226074 0-1.0322317.389644-1.8730436 1.168945-2.522461.779301-.6494173 1.814935-.9741211 3.106934-.9741211.635745 0 1.274899.0786125 1.91748.2358399.642581.1572273 1.182615.3554675 1.620117.5947266v2.0610351h-.102539c-.49219-.3896504-1.040768-.6972645-1.645752-.9228516-.604983-.225587-1.215084-.3383789-1.830322-.3383789-.635745 0-1.172361.1332995-1.609863.3999024s-.65625.6699192-.65625 1.2099609c0 .478518.129881.8356922.389648 1.0715332.259767.2358411.676755.4289544 1.250977.5793457.287111.0751957.606687.1486813.95874.220459s.722898.1555171 1.112549.2512207c.84766.2119151 1.485105.5639624 1.912353 1.0561524.427249.4921899.640869 1.1621051.640869 2.0097656 0 .4921899-.097411.958738-.292236 1.3996582s-.480223.8186019-.856201 1.1330566c-.410158.3417986-.873288.6015616-1.389404.7792969s-1.163815.2666016-1.943116.2666016zm9.645757-.0512696c-1.05274 0-1.873044-.2990692-2.460938-.8972168-.587893-.5981475-.881836-1.5432064-.881836-2.835205v-6.347168h-1.302246v-1.5996094h1.302246v-3.2915039h1.927735v3.2915039h3.547851v1.5996094h-3.547851v5.4448242c0 .5810576.010254 1.028807.030762 1.3432617.020507.3144547.09912.6083971.235839.881836.116212.239259.304198.4187005.563965.53833.259767.1196296.611814.1794434 1.056153.1794434.314454 0 .61865-.0461421.912597-.1384277s.505859-.1691892.635742-.2307129h.112793v1.7329101c-.362306.1025396-.729734.1828611-1.102295.2409668-.37256.0581058-.716062.0871582-1.030517.0871582zm8.435795.0410157c-1.825204 0-3.241938-.5143992-4.250244-1.5432129-1.008306-1.0288138-1.512451-2.4899808-1.512451-4.3835449 0-1.8662203.488765-3.3513129 1.466309-4.4553223s2.255851-1.6560059 3.834961-1.6560059c.710941 0 1.339841.1025381 1.886718.3076172.546878.2050792 1.025389.526365 1.435547.9638672s.724608.9724089.94336 1.6047363c.218751.6323274.328125 1.4064896.328125 2.3225098v1.0458984h-7.936524c0 1.3330145.334958 2.351559 1.004883 3.0556641s1.596185 1.0561523 2.778809 1.0561523c.42383 0 .839109-.047851 1.245849-.1435547.40674-.0957036.774168-.2187492 1.102295-.3691406.348635-.1572273.642577-.3093254.881836-.4562988s.437499-.2853997.594727-.4152832h.112793v2.1020508c-.225588.0888676-.505858.1999505-.840821.3332519-.334962.1333015-.635741.2375485-.902344.3127442-.375978.1025395-.716062.181152-1.020263.2358398s-.688719.0820313-1.153565.0820313zm2.25586-7.2700196c-.013672-.5195338-.075195-.9672832-.184571-1.3432617-.109375-.3759784-.2666-.6938463-.471679-.9536133-.225587-.2871108-.514403-.5058586-.866455-.65625-.352053-.1503913-.78784-.2255859-1.307373-.2255859-.512698 0-.948485.0769035-1.307373.2307129-.358889.1538093-.685302.3776841-.979249.6716308-.28711.3007828-.505858.6340314-.65625.9997559-.150391.3657245-.246093.7912573-.287109 1.2766113zm12.732182 7.003418h-1.927734v-6.5214844c0-.5263698-.025635-1.0168434-.076905-1.4714355s-.148681-.8186022-.292236-1.092041c-.157227-.2871108-.375975-.5007318-.65625-.6408692s-.663084-.2102051-1.148438-.2102051c-.478518 0-.972409.1281726-1.481689.3845215-.50928.256349-1.006589.5895976-1.491943.9997559v8.5517578h-1.927735v-11.4536133h1.927735v1.2714844c.574221-.5126979 1.141598-.9057604 1.702148-1.1791992.56055-.2734389 1.151852-.4101563 1.773926-.4101563 1.127935 0 2.009762.3708459 2.645508 1.1125489.635745.7417029.953613 1.8166433.953613 3.2248535z"/><path d="m17.9784137 9.7992641v-1.33905696c0-4.39630101-3.5639061-7.96020714-7.9602071-7.96020714-4.39630101 0-7.96020715 3.56390613-7.96020715 7.96020714v1.34137367c-1.09484359.30811339-1.85296558 1.30444829-1.85799945 2.44180979v2.7082311c0 1.4074305 1.14094783 2.5483783 2.5483783 2.5483783h1.73058054c.38384468 0 .69501227-.3111676.69501227-.6950123v-6.4149632c0-.3838446-.31116759-.69501224-.69501227-.69501224h-1.03093486v-1.23480512c0-3.62861166 2.94157096-6.57018261 6.57018262-6.57018261 3.6286117 0 6.5701826 2.94157095 6.5701826 6.57018261v1.23480512h-1.0309349c-.3838446 0-.6950122.31116764-.6950122.69501224v6.4149632c0 .3838447.3111676.6950123.6950122.6950123h1.7305806c1.4074305 0 2.5483783-1.1409478 2.5483783-2.5483783v-2.7082311c-.0040018-1.1382218-.7623328-2.135777-1.8579995-2.4441265z" fill-rule="nonzero" transform="translate(874 43)"/></g></svg>