<svg height="18" viewBox="0 0 58 18" width="58" xmlns="http://www.w3.org/2000/svg"><g fill="#0060df" fill-rule="evenodd" transform="translate(-836 -43)"><text font-family="SegoeUI, Segoe UI" font-size="13" letter-spacing="-.0590909086"><tspan x="836" y="58">Listen</tspan></text><path d="m17.9784137 9.7992641v-1.33905696c0-4.39630101-3.5639061-7.96020714-7.9602071-7.96020714-4.39630101 0-7.96020715 3.56390613-7.96020715 7.96020714v1.34137367c-1.09484359.30811339-1.85296558 1.30444829-1.85799945 2.44180979v2.7082311c0 1.4074305 1.14094783 2.5483783 2.5483783 2.5483783h1.73058054c.38384468 0 .69501227-.3111676.69501227-.6950123v-6.4149632c0-.3838446-.31116759-.69501224-.69501227-.69501224h-1.03093486v-1.23480512c0-3.62861166 2.94157096-6.57018261 6.57018262-6.57018261 3.6286117 0 6.5701826 2.94157095 6.5701826 6.57018261v1.23480512h-1.0309349c-.3838446 0-.6950122.31116764-.6950122.69501224v6.4149632c0 .3838447.3111676.6950123.6950122.6950123h1.7305806c1.4074305 0 2.5483783-1.1409478 2.5483783-2.5483783v-2.7082311c-.0040018-1.1382218-.7623328-2.135777-1.8579995-2.4441265z" fill-rule="nonzero" transform="translate(874 43)"/></g></svg>