<svg height="14" viewBox="0 0 16 14" width="16" xmlns="http://www.w3.org/2000/svg"><path d="m14.3925581 7.5255814v-1.07534884c0-3.53051237-2.8620457-6.39255814-6.3925581-6.39255814-3.53051237 0-6.39255814 2.86204577-6.39255814 6.39255814v1.0772093c-.8792298.2474349-1.4880505 1.04755587-1.49209302 1.96093023v2.17488371c0 1.1302572.91625446 2.0465116 2.04651163 2.0465116h1.38976744c.30825195 0 .55813953-.2498875.55813953-.5581395v-5.1516279c0-.30825195-.24988758-.55813953-.55813953-.55813953h-.82790698v-.99162791c0-2.91400847 2.3622706-5.27627907 5.27627907-5.27627907 2.9140085 0 5.2762791 2.3622706 5.2762791 5.27627907v.99162791h-.827907c-.308252 0-.5581395.24988758-.5581395.55813953v5.1516279c0 .308252.2498875.5581395.5581395.5581395h1.3897674c1.1302572 0 2.0465117-.9162544 2.0465117-2.0465116v-2.17488371c-.0032137-.91406528-.6122023-1.71516622-1.4920931-1.96279069z" fill="#737373" fill-rule="evenodd"/></svg>