<svg height="14" viewBox="0 0 50 14" width="50" xmlns="http://www.w3.org/2000/svg"><g fill="#00aeff" fill-rule="evenodd" transform="translate(-1)"><text font-family="SegoeUI, Segoe UI" font-size="11"><tspan x="0" y="12">Listen</tspan></text><path d="m49.3925581 7.5255814v-1.07534884c0-3.53051237-2.8620457-6.39255814-6.3925581-6.39255814s-6.3925581 2.86204577-6.3925581 6.39255814v1.0772093c-.8792298.2474349-1.4880505 1.04755587-1.4920931 1.96093023v2.17488371c0 1.1302572.9162545 2.0465116 2.0465117 2.0465116h1.3897674c.308252 0 .5581395-.2498875.5581395-.5581395v-5.1516279c0-.30825195-.2498875-.55813953-.5581395-.55813953h-.827907v-.99162791c0-2.91400847 2.3622706-5.27627907 5.2762791-5.27627907s5.2762791 2.3622706 5.2762791 5.27627907v.99162791h-.827907c-.308252 0-.5581395.24988758-.5581395.55813953v5.1516279c0 .308252.2498875.5581395.5581395.5581395h1.3897674c1.1302572 0 2.0465117-.9162544 2.0465117-2.0465116v-2.17488371c-.0032137-.91406528-.6122023-1.71516622-1.4920931-1.96279069z"/></g></svg>